<svg width="320" height="160" viewBox="0 0 320 160" fill="none" xmlns="http://www.w3.org/2000/svg">
<path d="M138.393 73.1344H144.827V93.1016H138.393V73.1344Z" fill="#808080"/>
<path d="M146.171 73.1344H152.368V75.8643H152.486C153.986 73.7193 155.92 72.5495 158.723 72.5495C163.144 72.5495 165.749 75.6693 165.749 80.1151V93.1016H159.315V81.4022C159.315 79.2961 158.249 77.8531 156.157 77.8531C154.026 77.8531 152.604 79.6082 152.604 82.065V93.1016H146.171V73.1344Z" fill="#808080"/>
<path d="M145.466 67.7887C145.466 65.6826 143.738 63.9756 141.606 63.9756C139.475 63.9756 137.747 65.6826 137.747 67.7887C137.747 69.8945 139.475 71.6016 141.606 71.6016C143.738 71.6016 145.466 69.8945 145.466 67.7887Z" fill="#808080"/>
<path d="M211.016 72.8462C210.832 72.8299 210.622 72.8226 210.375 72.8226C207.928 72.8226 206.27 73.8755 204.849 76.2544H204.731V73.1346H198.573V93.1016H205.007V84.1321C205.007 79.976 207.337 78.0502 211.016 78.3862V72.8462Z" fill="#808080"/>
<path d="M242.581 80.506C240.016 80.0382 237.726 79.8432 237.726 78.4393C237.726 77.1913 238.95 76.6064 240.529 76.6064C242.305 76.6064 243.529 77.1523 243.765 78.9463H249.686C249.371 75.0075 246.292 72.5505 240.569 72.5505C235.792 72.5505 231.845 74.7344 231.845 78.9463C231.845 83.6258 235.595 84.5619 239.108 85.147C241.792 85.615 244.239 85.81 244.239 87.6038C244.239 88.8908 243.016 89.5928 241.081 89.5928C239.141 89.5928 237.858 88.7817 237.464 87.136H231.333C231.785 91.2406 235.431 93.7266 241.121 93.7266C246.41 93.7266 250.318 91.4647 250.318 87.097C250.318 81.988 246.134 81.0911 242.581 80.506Z" fill="#808080"/>
<path d="M220.993 77.0819C223.085 77.0819 224.585 78.6029 224.822 80.982H216.848C217.282 78.6029 218.546 77.0819 220.993 77.0819ZM221.348 89.1323C218.703 89.1323 217.204 87.4555 216.809 84.7646H231.335C231.374 80.7089 230.19 77.2379 227.782 75.0542C226.045 73.4943 223.756 72.5582 220.874 72.5582C214.717 72.5582 210.493 77.1209 210.493 83.0878C210.493 89.1323 214.598 93.6953 221.269 93.6953C223.835 93.6953 225.887 93.0323 227.585 91.8623C229.361 90.6534 230.545 88.9375 230.979 87.1437H224.703C224.15 88.3916 223.046 89.1323 221.348 89.1323Z" fill="#808080"/>
<path d="M261.641 88.3936C261.343 88.4052 260.942 88.4223 260.575 88.4223C259.193 88.4223 258.325 88.0322 258.325 86.4723V77.1126H261.641V73.1349H258.325V66.8172H252.048V73.1349H250.074V77.1126H252.048V87.8372C252.048 92.1272 254.733 93.3359 258.483 93.3359C259.913 93.3359 260.995 93.2301 261.641 93.1056V88.3936Z" fill="#808080"/>
<path d="M177.229 88.4026C176.972 88.4125 176.676 88.4223 176.399 88.4223C175.018 88.4223 174.149 88.0322 174.149 86.4723V77.1126H177.229V73.1349H174.149V66.8172H167.873V73.1349H165.78V77.1126H167.873V87.8372C167.873 92.1272 170.557 93.3359 174.307 93.3359C175.576 93.3359 176.569 93.2525 177.229 93.1469V88.4026Z" fill="#808080"/>
<path d="M191.247 80.982C191.011 78.603 189.51 77.0819 187.418 77.0819C184.971 77.0819 183.708 78.603 183.274 80.982H191.247ZM176.919 83.0878C176.919 77.121 181.142 72.5584 187.3 72.5584C190.181 72.5584 192.471 73.4943 194.208 75.0542C196.616 77.2381 197.8 80.7089 197.76 84.7648H183.234C183.629 87.4555 185.129 89.1325 187.774 89.1325C189.471 89.1325 190.576 88.3916 191.129 87.1437H197.405C196.971 88.9375 195.787 90.6534 194.01 91.8625C192.313 93.0323 190.26 93.6953 187.695 93.6953C181.024 93.6953 176.919 89.1325 176.919 83.0878Z" fill="#808080"/>
<path d="M127.236 78.3213C129.762 78.3213 131.183 76.8393 131.183 74.6162C131.183 72.3935 129.722 71.0286 127.236 71.0286H122.301V78.3213H127.236ZM115.788 65.2178H126.96C130.394 65.2178 132.921 66.1537 134.657 67.7917C136.473 69.4685 137.5 71.8476 137.5 74.6554C137.5 79.9981 133.75 83.7811 127.947 83.7811H122.301V93.1016H115.788V65.2178Z" fill="#808080"/>
<path d="M106.943 80C106.943 93.2548 96.067 104 82.6511 104C69.2352 104 58.3594 93.2548 58.3594 80C58.3594 66.745 69.2352 56 82.6511 56C96.067 56 106.943 66.745 106.943 80Z" fill="#131416"/>
<path d="M82.6511 56C69.2352 56 58.3594 66.745 58.3594 80C58.3594 90.1676 64.7623 98.8595 73.7986 102.356C73.5863 100.458 73.3943 97.5373 73.8828 95.4643C74.3243 93.5912 76.7313 83.5347 76.7313 83.5347C76.7313 83.5347 76.0047 82.097 76.0047 79.9715C76.0047 76.6343 77.9625 74.1428 80.4002 74.1428C82.4727 74.1428 83.4737 75.6801 83.4737 77.5235C83.4737 79.5827 82.1467 82.6614 81.4619 85.5145C80.8896 87.9032 82.6744 89.8513 85.0591 89.8513C89.3765 89.8513 92.6954 85.3535 92.6954 78.8611C92.6954 73.1147 88.5161 69.097 82.5485 69.097C75.6367 69.097 71.5797 74.219 71.5797 79.5123C71.5797 81.5751 72.384 83.7869 73.3876 84.9894C73.5861 85.227 73.6152 85.4352 73.556 85.6778C73.3716 86.4358 72.9618 88.0659 72.8814 88.3996C72.7755 88.8389 72.5293 88.9321 72.069 88.7204C69.0351 87.3252 67.1382 82.9428 67.1382 79.4228C67.1382 71.8521 72.7058 64.8993 83.1887 64.8993C91.6155 64.8993 98.1641 70.832 98.1641 78.7606C98.1641 87.0319 92.8855 93.6886 85.5589 93.6886C83.0973 93.6886 80.7833 92.4251 79.9912 90.9327C79.9912 90.9327 78.7731 95.5151 78.4778 96.638C77.9294 98.7226 76.4489 101.336 75.4587 102.93C77.7315 103.625 80.1469 104 82.6511 104C96.067 104 106.943 93.2548 106.943 80C106.943 66.745 96.067 56 82.6511 56Z" fill="#808080"/>
</svg>
