<svg width="320" height="160" viewBox="0 0 320 160" fill="none" xmlns="http://www.w3.org/2000/svg">
<path d="M259.369 92.2373C257.725 92.2373 256.08 92.2373 254.436 92.2945C253.72 92.2945 253.613 92.0247 253.613 91.4359C253.613 85.9083 253.613 80.3808 253.613 74.845C253.613 71.3126 253.613 67.7801 253.613 64.215C253.525 62.7891 253.561 61.3583 253.72 59.9385C255.126 59.7422 256.549 59.9385 257.963 59.8485C258.42 59.9058 258.884 59.8725 259.328 59.7504L259.369 92.2373Z" fill="#808080"/>
<path d="M126.684 63.6673C118.329 63.6673 109.969 63.6673 101.604 63.6673C100.979 63.6673 100.781 63.4793 100.831 62.8905C100.831 61.2551 100.831 59.6198 100.831 57.9844H126.659C126.854 58.2123 126.959 58.5028 126.955 58.8021C126.955 60.1758 126.955 61.5577 126.955 62.8905C126.971 63.032 126.955 63.1752 126.908 63.3097C126.861 63.4442 126.785 63.5664 126.684 63.6673Z" fill="#C3C3C3"/>
<path d="M126.684 63.669C126.684 61.7883 126.684 59.8994 126.684 58.0187H139.594C139.771 58.2148 139.873 58.4667 139.882 58.7301C139.882 60.1693 139.931 61.6084 139.882 63.0394C139.885 63.2716 139.8 63.4964 139.643 63.669H126.684Z" fill="#CECECE"/>
<path d="M139.652 63.669V58.0187H145.408C145.408 59.6541 145.359 61.2159 145.408 62.8186C145.408 63.4727 145.285 63.7344 144.586 63.7099C142.859 63.6445 141.239 63.6772 139.652 63.669Z" fill="#808080"/>
<path d="M77.9808 82.1141L79.0416 79.6611C81.7552 73.3485 84.477 67.0441 87.1576 60.7233C87.2344 60.4489 87.4079 60.2111 87.6465 60.0534C87.885 59.8958 88.1727 59.8288 88.4569 59.8647C90.4715 59.8647 92.4861 59.7911 94.509 59.8647C95.0928 59.8647 95.2161 60.0773 95.2161 60.6088C95.2161 70.9336 95.2161 81.2583 95.2161 91.583C95.2161 92.1717 95.0188 92.2944 94.4761 92.2862C93.1193 92.2862 91.7625 92.2208 90.4057 92.2862C89.6492 92.2862 89.4847 92.0981 89.493 91.3704C89.493 84.6163 89.493 77.8621 89.493 71.1162V70.3966C89.0654 70.552 89.0654 70.9608 88.942 71.2552C86.0201 78.0148 83.1174 84.7771 80.2339 91.5421C80.1713 91.7891 80.0168 92.0032 79.8016 92.1413C79.5864 92.2794 79.3266 92.3312 79.0745 92.2862C78.0877 92.229 76.9036 92.5724 76.1553 92.1472C75.407 91.722 75.2343 90.4137 74.8314 89.4897C72.0932 83.169 69.3632 76.7664 66.4687 70.4048C66.4687 70.7319 66.4276 71.0671 66.4276 71.3942C66.4276 78.0502 66.4276 84.698 66.4276 91.3541C66.4276 92.0573 66.3042 92.3353 65.523 92.2944C64.1662 92.2208 62.8012 92.2453 61.4527 92.2944C60.8688 92.2944 60.6304 92.2045 60.6304 91.5585C60.6304 81.2392 60.6304 70.9145 60.6304 60.5843C60.6304 60.0201 60.7948 59.8975 61.3458 59.8729C63.4673 59.783 65.5806 59.8729 67.6939 59.8729C68.3846 59.8729 68.5162 60.2818 68.6889 60.7315L77.4299 81.1002C77.6355 81.3864 77.767 81.6644 77.9808 82.1141Z" fill="#808080"/>
<path d="M117.935 71.6245C118.502 70.6096 119.274 69.7223 120.202 69.0187C121.13 68.315 122.195 67.8102 123.33 67.5361C124.584 67.2069 125.893 67.1435 127.174 67.3498C128.454 67.5562 129.676 68.0277 130.762 68.7338C131.847 69.44 132.771 70.365 133.474 71.449C134.177 72.5329 134.643 73.7516 134.842 75.0261C134.995 75.8653 135.075 76.7162 135.08 77.5691C135.08 82.1891 135.08 86.809 135.08 91.429C135.08 92.1976 134.85 92.3448 134.143 92.3121C132.819 92.263 131.487 92.263 130.171 92.3121C129.497 92.3121 129.349 92.124 129.349 91.4944C129.349 87.5586 129.349 83.6255 129.349 79.6951C129.376 78.7476 129.307 77.7998 129.143 76.8659C128.978 75.7344 128.41 74.6995 127.542 73.9492C126.674 73.199 125.565 72.7832 124.415 72.7775C121.414 72.6712 119.128 74.1348 118.338 76.6697C118.05 77.6464 117.911 78.6609 117.927 79.6788C117.927 83.6119 117.927 87.5368 117.927 91.4699C117.927 92.1567 117.771 92.3693 117.105 92.3366C115.784 92.2712 114.46 92.2712 113.133 92.3366C112.393 92.3366 112.196 92.1731 112.204 91.4208C112.204 85.3944 112.204 79.3599 112.204 73.3335C112.204 71.7962 112.204 70.2508 112.204 68.7135C112.204 68.1084 112.311 67.8468 113.026 67.8958C114.449 67.9531 115.871 67.9367 117.294 67.8958C117.886 67.8958 118.009 68.0839 117.985 68.6154C117.902 69.474 117.935 70.3898 117.935 71.6245Z" fill="#808080"/>
<path d="M151.56 87.1764C151.305 88.7381 151.058 90.2427 150.82 91.7554C150.8 91.869 150.745 91.9736 150.663 92.0544C150.58 92.1351 150.474 92.1879 150.359 92.2052C148.024 92.8511 145.672 93.1864 143.37 92.2052C142.211 91.7336 141.228 90.9168 140.555 89.8669C139.882 88.8171 139.553 87.5859 139.612 86.3423C139.538 80.4141 139.612 74.4858 139.612 68.5575C139.612 67.9933 139.768 67.8543 140.327 67.8543C144.395 67.8543 148.465 67.8543 152.538 67.8543C153.081 67.8543 153.213 68.0097 153.122 68.5166C152.892 69.7759 152.695 71.0351 152.505 72.2944C152.431 72.8095 152.193 72.973 151.683 72.9649C149.833 72.9649 147.975 72.9649 146.124 72.9649C145.491 72.9649 145.36 73.1366 145.368 73.7335C145.368 77.6012 145.368 81.4689 145.368 85.3284C145.368 87.1927 146.322 88.0513 148.188 87.8469C149.249 87.6752 150.343 87.4053 151.56 87.1764Z" fill="#808080"/>
<path d="M217.951 71.0872C218.701 70.0405 219.67 69.1671 220.791 68.5265C221.912 67.8859 223.159 67.4931 224.447 67.3749C225.121 67.3094 225.475 67.3749 225.425 68.1925C225.343 69.5336 225.376 70.8827 225.425 72.2238C225.425 72.788 225.318 72.976 224.702 73.0415C223.593 73.086 222.508 73.3763 221.526 73.8913C220.544 74.4062 219.691 75.1328 219.028 76.0179C218.033 77.4161 217.975 79.0188 217.967 80.6215C217.967 84.1948 217.967 87.7681 217.967 91.3332C217.967 92.1509 217.72 92.3145 216.972 92.2818C215.615 92.2327 214.25 92.2818 212.902 92.2818C212.367 92.2818 212.236 92.1264 212.244 91.6194C212.244 83.9168 212.244 76.2141 212.244 68.5115C212.244 68.0372 212.31 67.8164 212.877 67.8328C214.365 67.8736 215.854 67.8328 217.342 67.8328C217.827 67.8328 217.975 67.9799 217.959 68.446C217.934 69.3373 217.951 70.2122 217.951 71.0872Z" fill="#808080"/>
<path d="M100.849 80.0615C100.849 76.3001 100.849 72.5305 100.849 68.7691C100.849 67.9514 101.104 67.8043 101.836 67.837C103.192 67.886 104.549 67.8778 105.947 67.837C106.523 67.837 106.654 68.0087 106.654 68.5565C106.654 76.221 106.654 83.8855 106.654 91.55C106.654 92.196 106.416 92.3023 105.832 92.2859C104.442 92.2859 103.053 92.2287 101.663 92.2859C100.972 92.2859 100.841 92.057 100.841 91.4682C100.865 87.666 100.849 83.8637 100.849 80.0615Z" fill="#808080"/>
<path d="M206.842 67.8552C205.288 67.8552 203.733 67.8552 202.179 67.8552C202.031 67.8552 201.842 67.798 201.801 68.0433V70.2674C198.339 67.5199 194.672 66.645 190.642 67.8143C184.377 69.6378 180.775 76.0485 182.115 82.7045C182.468 84.5565 183.254 86.2998 184.411 87.7929C185.568 89.2859 187.063 90.4867 188.774 91.2976C190.485 92.1085 192.364 92.5067 194.259 92.46C196.154 92.4133 198.011 91.9228 199.679 91.0286C200.378 90.6443 201.02 90.1536 201.785 89.6549V91.462C201.745 92.2807 201.511 93.0785 201.101 93.7894C200.69 94.5003 200.116 95.1039 199.425 95.5504C198.121 96.3411 196.617 96.744 195.091 96.7115C191.979 96.6644 188.931 95.8195 186.243 94.2585C185.709 93.9723 185.421 93.915 185.174 94.5774C184.722 95.7303 184.196 96.8587 183.645 97.9708C183.382 98.4859 183.431 98.7885 183.949 99.0665C189.376 102.084 195.075 102.959 200.995 100.882C202.775 100.329 204.339 99.2424 205.474 97.7714C206.609 96.3003 207.259 94.5165 207.335 92.664C207.411 92.3521 207.463 92.0351 207.491 91.7155C207.491 83.9883 207.491 76.2611 207.491 68.5339C207.516 68.0187 207.368 67.847 206.842 67.8552ZM194.425 86.8338C193.056 86.7806 191.733 86.3272 190.622 85.5303C189.511 84.7333 188.661 83.6283 188.179 82.3534C187.696 81.0785 187.602 79.6904 187.909 78.3627C188.216 77.0351 188.909 75.8268 189.903 74.8892C190.897 73.9515 192.146 73.3261 193.496 73.0912C194.845 72.8563 196.234 73.0223 197.489 73.5684C198.744 74.1145 199.809 75.0166 200.551 76.1616C201.294 77.3067 201.68 78.644 201.661 80.0061C201.603 81.8627 200.81 83.6215 199.455 84.9C198.1 86.1785 196.293 86.8735 194.425 86.8338Z" fill="#808080"/>
<path d="M249.395 77.0645C249.395 72.7552 247.2 69.4027 243.516 68.1434C239.992 66.8756 236.114 66.9986 232.678 68.4869C231.377 68.9908 230.242 69.8439 229.4 70.9512C228.558 72.0586 228.042 73.3766 227.909 74.7586C227.835 75.3228 227.975 75.5272 228.567 75.5027C229.66 75.4618 230.754 75.4454 231.856 75.5027C232.769 75.5517 233.5 75.5027 233.772 74.4233C233.901 74.0828 234.142 73.795 234.454 73.6056C235.371 72.9484 236.439 72.5325 237.561 72.3967C238.682 72.2609 239.82 72.4095 240.868 72.8288C242.907 73.5811 243.393 75.4209 243.574 77.367C243.631 77.9149 243.573 78.0948 242.891 77.9639C240.071 77.3719 237.167 77.2805 234.314 77.6941C231.922 78.0539 229.636 78.7244 227.999 80.6378C227.275 81.5386 226.777 82.5976 226.545 83.7276C226.313 84.8576 226.355 86.0262 226.666 87.137C226.978 88.2478 227.551 89.2691 228.337 90.1167C229.124 90.9642 230.101 91.6138 231.19 92.0119C233.258 92.8996 235.541 93.1689 237.761 92.787C239.981 92.4051 242.041 91.3885 243.689 89.8613C243.689 90.5646 243.73 91.0797 243.689 91.5948C243.648 92.11 243.87 92.2981 244.412 92.2817C245.835 92.2817 247.257 92.2817 248.68 92.2817C249.305 92.2817 249.436 92.0936 249.436 91.5049C249.395 86.6969 249.436 81.8807 249.395 77.0645ZM243.491 83.5488C243.238 84.4767 242.745 85.3225 242.06 86.0018C241.258 86.9489 240.226 87.6777 239.062 88.1196C237.899 88.5616 236.641 88.7023 235.408 88.5285C233.171 88.2178 231.708 86.2635 232.357 84.44C232.545 83.984 232.825 83.5713 233.18 83.228C233.535 82.8846 233.958 82.618 234.421 82.4449C235.751 81.8695 237.19 81.5904 238.64 81.6272C240.07 81.6773 241.485 81.9335 242.842 82.3876C242.971 82.4025 243.096 82.4479 243.204 82.52C243.313 82.5921 243.403 82.689 243.466 82.8024C243.53 82.9159 243.565 83.0428 243.569 83.1726C243.574 83.3024 243.547 83.4313 243.491 83.5488Z" fill="#808080"/>
<path d="M178.498 76.6882C176.31 67.9143 165.793 64.3328 158.886 70.073C155.037 73.2702 153.812 77.5059 154.487 82.3384C154.834 84.7165 155.877 86.9406 157.485 88.7344C159.093 90.5283 161.196 91.8129 163.532 92.4287C168.515 93.6226 174.057 91.6764 176.886 87.7679C177.165 87.3672 177.157 87.1873 176.705 86.9502C175.389 86.3369 174.074 85.7236 172.799 85.0368C172.322 84.7833 172.1 84.8651 171.746 85.2412C170.944 86.1548 169.913 86.8416 168.759 87.2324C167.604 87.6231 166.366 87.7039 165.17 87.4667C163.974 87.2295 162.861 86.6825 161.946 85.8812C161.03 85.0798 160.343 84.0524 159.955 82.9026C159.7 82.2321 159.79 82.0849 160.522 82.0849C163.4 82.0849 166.278 82.0849 169.156 82.0849C172.034 82.0849 174.978 82.0849 177.889 82.0849C178.588 82.0849 178.802 81.856 178.851 81.2182C178.979 79.6991 178.86 78.1694 178.498 76.6882ZM160.119 77.0643C160.584 75.7241 161.458 74.5615 162.618 73.7385C163.779 72.9156 165.169 72.4733 166.595 72.4733C168.02 72.4733 169.41 72.9156 170.571 73.7385C171.732 74.5615 172.606 75.7241 173.07 77.0643H160.119Z" fill="#808080"/>
</svg>
